<svg width="167" height="270" viewBox="0 0 167 270" fill="none" xmlns="http://www.w3.org/2000/svg">
<g clip-path="url(#clip0_1_627)">
<path d="M166.97 88.5471C167.039 86.2107 166.97 83.8842 166.97 81.5576C166.97 75.9719 166.911 70.3861 166.794 64.8004C166.715 61.2369 166.421 57.6734 166.313 54.1198C166.313 52.5295 166.509 50.9391 166.519 49.3586C166.519 45.1669 166.519 40.9653 166.568 36.7834C166.568 34.4274 166.941 32.0713 166.97 29.7153C167.031 27.0002 166.949 24.2838 166.725 21.5772C166.488 20.0217 166.049 18.5036 165.419 17.0615C165.156 16.5021 164.704 16.0536 164.143 15.7952C163.092 15.2749 161.943 14.9411 160.843 14.4993C160.122 14.1259 159.377 13.798 158.614 13.5177C156.346 12.9188 154.039 12.4378 151.741 11.8685C144.564 10.072 137.671 7.24476 130.326 6.04712C125.417 5.24215 120.586 4.01505 115.667 3.24935C109.569 2.26767 103.432 1.56086 97.2954 0.854058C93.5711 0.349628 89.8203 0.064451 86.0626 0C79.1893 0 72.3161 0.176702 65.4429 0.69699C61.0474 1.14618 56.6853 1.8774 52.3837 2.88613C46.4236 4.12304 40.5126 5.55628 34.582 6.95026C30.7232 7.8534 26.8742 8.83508 23.0448 9.81675C18.6165 11.0144 14.2078 12.3397 9.82856 13.606C8.59545 13.8913 7.38457 14.2653 6.20538 14.7251C3.9274 15.7657 3.03388 17.9548 2.15999 20.0949C1.85271 20.8025 1.68277 21.5621 1.65923 22.3331C1.61014 24.4928 1.72796 26.6525 1.65923 28.8122C1.57086 32.3364 1.29593 35.8508 1.27629 39.375C1.27629 44.9804 1.35484 50.5956 1.39412 56.2009C1.39412 58.1643 1.48249 60.2258 1.39412 62.2284C1.30575 64.231 0.922812 66.5183 0.775528 68.7173C0.677339 70.18 0.775528 71.6623 0.775528 73.125C0.66752 75.7166 0.451504 78.2984 0.343496 80.8802C0.186394 83.894 -0.000165568 86.9568 0.0980235 90C0.264945 95.5072 -0.284914 100.985 0.206031 106.512C0.716615 112.333 1.08973 129.62 1.45303 132.379C1.69851 134.215 2.02253 136.041 2.43492 137.847C3.3579 142.304 4.12378 146.8 5.8519 151.041C6.96144 153.75 8.28699 156.371 9.33762 159.09C11.06 163.203 13.1951 167.13 15.7101 170.812C17.8015 174.061 20.1482 177.153 22.5244 180.196C24.0789 182.133 25.7513 183.972 27.5321 185.704C29.5547 187.736 31.764 189.581 33.7965 191.594C36.2538 194.202 39.0947 196.42 42.2211 198.171C44.0867 199.152 45.8541 200.34 47.7197 201.342C51.1465 203.177 54.593 205.013 58.0787 206.731C60.4526 207.918 62.8915 208.97 65.3839 209.882C68.1725 210.864 71.0887 211.531 73.8871 212.513C76.5011 213.363 78.8448 214.886 80.6818 216.931C81.5533 217.785 82.5458 218.506 83.6275 219.071C83.9654 219.268 84.3609 219.342 84.7473 219.281C85.1338 219.22 85.4873 219.028 85.7484 218.737C86.8677 217.755 88.0067 216.842 89.1555 215.92C90.3548 214.895 91.7194 214.082 93.1911 213.514C95.2236 212.798 97.1187 211.826 99.2494 211.217C100.869 210.746 102.401 210.02 103.992 209.45C105.766 208.951 107.508 208.341 109.206 207.624C112.377 206.014 115.46 204.228 118.514 202.412C120.478 201.224 122.442 199.859 124.317 198.563C126.415 197.326 128.423 195.942 130.326 194.421C134.499 190.651 138.417 186.567 142.531 182.768C145.316 180.069 147.739 177.02 149.738 173.698C151.398 171.047 152.802 168.23 154.304 165.491C155.747 163.114 157.058 160.659 158.232 158.138C160.048 153.721 161.639 149.205 163.141 144.679C163.992 142.114 164.648 139.489 165.105 136.826C165.664 133.596 165.949 130.308 166.313 127.009C166.877 121.974 167.015 116.901 166.725 111.842C166.489 107.984 166.421 104.107 166.47 100.249C166.519 96.3907 166.853 92.4542 166.97 88.5471Z" fill="#61302A"/>
<path d="M27.1493 235.239C26.8628 236.621 26.718 238.029 26.7172 239.44C26.8842 241.649 26.9725 243.868 27.1002 246.077C27.1002 246.361 27.1689 246.646 27.2082 247.058C27.4046 246.95 27.4929 246.931 27.5224 246.872C28.1238 246.137 28.848 245.513 29.6629 245.026C30.3136 244.482 30.921 243.888 31.4794 243.249C33.0014 241.649 34.5233 240.069 36.0059 238.439C36.654 237.723 37.1842 236.898 37.7832 236.122C38.053 235.728 38.3517 235.354 38.6767 235.003C39.234 234.49 39.6758 233.864 39.9728 233.168C40.0869 232.913 40.2877 232.707 40.5394 232.587C40.7912 232.466 41.0775 232.439 41.3474 232.51C42.3133 232.841 43.3487 232.915 44.352 232.726C44.8637 232.668 45.3788 232.645 45.8936 232.657C46.348 232.628 46.8039 232.628 47.2584 232.657C47.6217 232.657 48.2992 232.657 48.3778 232.952C48.4563 233.246 48.1028 233.668 47.9065 233.933C47.7101 234.198 47.2879 234.709 46.9835 235.101C46.0016 236.358 45.0197 237.644 44.0378 238.871C43.0559 240.098 42.074 241.158 41.0332 242.268C40.3459 243.014 39.6193 243.721 38.8927 244.427C38.6892 244.585 38.5493 244.811 38.4988 245.063C38.4483 245.316 38.4906 245.578 38.6178 245.802C39.3935 247.559 40.071 249.355 40.8074 251.132C41.0136 251.623 41.3081 252.114 41.5634 252.546C42.3195 253.92 43.105 255.285 43.8316 256.679C44.8626 258.642 45.8543 260.605 46.8755 262.569C46.9835 262.785 47.1308 262.971 47.2486 263.187C47.8475 264.277 48.4269 265.386 49.0651 266.466C49.4578 267.124 49.9291 267.742 50.371 268.38C50.8128 269.018 51.7555 269.971 49.0553 270C47.4646 270 45.8739 270 44.2833 270C43.3701 270 42.4668 269.872 41.5634 269.823C40.6601 269.774 39.5997 269.735 38.6178 269.696C38.3428 269.696 37.3217 267.634 37.0173 266.976C36.5263 265.916 36.1238 264.827 35.5739 263.806C35.1124 262.932 34.4644 262.156 33.9341 261.322C33.7672 261.057 33.7476 260.694 33.6003 260.409C32.9523 259.182 32.2748 257.965 31.6365 256.747C31.2438 256.041 30.8706 255.324 30.4681 254.627C30.2933 254.364 30.1031 254.112 29.8986 253.871C29.6138 253.557 27.9348 255.461 27.4242 256.816C27.3795 258.74 27.4583 260.665 27.6599 262.579C27.9642 264.287 27.7777 265.995 27.9839 267.693C27.9945 268.039 28.0306 268.383 28.0919 268.724C28.1901 269.038 28.3472 269.706 27.3653 269.823C26.3829 269.875 25.3979 269.848 24.4196 269.745C23.0352 269.666 16.0441 269.745 15.8477 269.225C15.6012 268.013 15.6012 266.764 15.8477 265.553C15.882 265.014 15.882 264.473 15.8477 263.933C15.8477 263.02 15.9852 262.107 16.0146 261.194C16.0146 260.036 16.0146 258.878 16.0146 257.719C16.0146 256.08 16.0637 254.44 16.0146 252.811C15.9655 251.181 15.8183 249.797 15.7692 248.295C15.7692 247.49 15.8674 246.695 15.8772 245.89C15.887 245.085 15.8281 244.575 15.8084 243.927C15.8084 243.063 15.7397 242.199 15.7201 241.325C15.7201 239.45 15.4648 237.565 15.5826 235.69C15.6612 234.404 15.0818 233.393 16.2405 233.492C16.5547 233.492 16.9376 233.629 17.0456 233.639C18.8175 233.94 20.6242 233.976 22.4067 233.747C22.996 233.738 23.5847 233.787 24.1643 233.894C25.4899 233.953 25.6175 233.894 26.9431 233.973C27.709 233.786 27.1787 235.023 27.1493 235.239Z" fill="#61302A"/>
<path d="M71.9628 232.579C73.8622 232.716 75.7262 233.164 77.481 233.904C78.5525 234.405 79.5833 234.99 80.5641 235.651C81.9867 236.596 83.1836 237.843 84.0695 239.303C84.6047 240.224 85.0581 241.189 85.4245 242.189C85.9842 243.426 86.8188 244.565 86.9661 245.959C87.0741 246.94 87.0839 247.922 87.133 248.904C87.2115 250.563 87.3588 252.222 87.3294 253.881C87.2522 254.726 87.064 255.558 86.7697 256.355C86.53 257.163 86.2415 257.957 85.9056 258.73C85.6126 259.447 85.2509 260.135 84.8256 260.782C83.8437 262.166 82.8618 263.511 81.8799 264.846C80.9767 266.212 79.653 267.245 78.1094 267.791C76.666 268.292 75.1637 268.665 73.6909 269.058C72.9466 269.276 72.1842 269.427 71.4129 269.509C70.3689 269.627 69.3149 269.627 68.2709 269.509C66.4724 269.232 64.6895 268.862 62.9294 268.4C61.744 268.066 60.5772 267.669 59.4338 267.212C59.0939 267.056 58.7658 266.876 58.452 266.672C58.344 266.603 58.2359 266.495 58.1279 266.495C57.6174 266.495 57.3424 266.221 57.0086 265.897C56.1347 265.043 55.1724 264.287 54.3378 263.393C53.706 262.734 53.1585 261.999 52.7079 261.204C51.9812 259.892 51.3257 258.542 50.7441 257.16C49.849 254.85 49.5452 252.353 49.8604 249.895C49.9177 248.519 50.1251 247.153 50.479 245.821C50.779 244.933 51.1331 244.065 51.5395 243.22C51.8984 242.397 52.3253 241.606 52.8159 240.854C53.4704 239.941 54.2031 239.087 55.0055 238.302C56.406 236.985 57.9624 235.844 59.64 234.905C60.8757 234.165 62.2316 233.646 63.6462 233.374C64.6281 233.207 65.5019 232.952 66.4347 232.765C68.2614 232.462 70.1198 232.4 71.9628 232.579ZM76.3715 248.472C76.2536 247.264 76.0671 246.067 75.9984 244.849C76.0166 243.447 75.7907 242.052 75.3307 240.726C75.0688 239.94 74.6514 239.213 74.1032 238.591C73.555 237.969 72.8872 237.463 72.1395 237.104C71.3388 236.688 70.4353 236.512 69.537 236.595C68.6387 236.679 67.7833 237.019 67.073 237.575C66.4319 238.056 65.825 238.581 65.2565 239.146C64.5918 239.745 64.0164 240.436 63.548 241.198C63.1879 242.117 62.899 243.062 62.6839 244.025C62.3154 245.082 62.1005 246.186 62.0457 247.304C62.0457 247.49 62.0457 247.677 62.0457 247.863C61.9573 249.149 61.7904 250.445 61.81 251.731C61.8245 253.19 62.0258 254.642 62.409 256.05C62.9883 258.112 63.3909 260.213 64.9914 261.832C65.7572 262.618 66.4445 263.511 67.6326 263.658C68.6145 263.786 69.6848 263.894 70.7158 263.953C71.1628 263.993 71.6108 263.888 71.9942 263.655C72.3776 263.422 72.6763 263.072 72.8465 262.657C73.3178 261.675 73.8284 260.694 74.2899 259.8C74.9983 258.45 75.4448 256.978 75.6056 255.461C75.7529 254.215 75.8412 252.958 75.9984 251.721C76.1162 250.916 76.4009 248.747 76.3715 248.472Z" fill="#61302A"/>
<path d="M104.964 263.276L106.849 263.325C108.116 263.325 109.392 263.384 110.669 263.374C111.945 263.364 113.291 263.325 114.596 263.315C115.353 263.315 116.109 263.315 116.865 263.315C117.09 263.315 118.18 262.893 118.131 264.296C118.131 264.728 118.318 265.151 118.308 265.573C118.298 265.995 118.249 266.554 118.249 267.261C118.249 267.968 118.445 269.274 118.053 269.224C116.285 269.293 114.518 269.332 112.76 269.362C112.485 269.362 112.201 269.283 111.926 269.283C110.571 269.283 109.216 269.391 107.861 269.391C107.144 269.391 106.427 269.244 105.71 269.234C104.188 269.234 102.667 269.234 101.154 269.234C99.6423 269.234 98.2087 269.077 96.7261 269.028C95.0307 268.976 93.332 268.946 91.6301 268.94C91.3846 268.94 89.0575 268.704 88.8317 268.616C88.6439 268.577 88.4686 268.492 88.3217 268.369C88.1747 268.246 88.0606 268.089 87.9895 267.911C87.9185 267.732 87.8927 267.54 87.9146 267.349C87.9365 267.159 88.0053 266.977 88.1149 266.819C88.5175 265.975 88.9593 265.151 89.411 264.336C90.3143 262.706 91.2275 261.096 92.1603 259.486C93.0931 257.876 94.1241 256.099 95.1059 254.382C95.8522 253.086 96.5591 251.78 97.2661 250.455C97.3883 250.137 97.4804 249.808 97.541 249.473C97.6197 249.164 97.7316 248.865 97.8749 248.58C98.5917 247.402 99.3772 246.253 100.055 245.056C100.929 243.514 101.724 241.934 102.549 240.363C102.716 240.029 102.814 239.656 103 239.175C101.753 239.254 100.634 239.362 99.5245 239.391C97.8356 239.391 96.1566 239.391 94.4677 239.391C93.1323 239.391 91.797 239.49 90.4714 239.558C90.0983 239.558 89.9216 239.49 89.9019 239.087C89.843 237.831 89.7645 236.584 89.6663 235.327C89.6663 235.121 89.1459 234.287 91.306 234.346C91.5515 234.346 92.7494 234.473 93.1913 234.463C94.8703 234.463 96.5493 234.316 98.2284 234.257C100.114 234.189 101.999 234.159 103.884 234.081C105.121 234.022 106.358 233.855 107.596 233.825C109.5 233.776 111.415 233.825 113.32 233.825C113.893 233.85 114.463 233.909 115.029 234.002C115.755 234.1 116.6 233.953 117.336 234.002C117.689 234.002 117.797 234.542 117.699 234.836C117.525 235.431 117.298 236.009 117.022 236.564C115.971 238.528 114.842 240.491 113.811 242.454C112.967 244.074 112.191 245.733 111.425 247.363C110.443 249.591 109.373 251.819 108.479 254.097C107.586 256.374 106.624 259.005 105.691 261.43C105.494 262.107 105.239 262.657 104.964 263.276Z" fill="#61302A"/>
<path d="M151.761 241.08C151.204 242.238 150.585 243.366 149.905 244.457C149.316 245.438 148.57 246.322 148 247.313C147.303 248.521 146.694 249.787 146.037 251.044C145.735 251.614 145.473 252.205 145.251 252.811C145.024 253.444 144.878 254.104 144.819 254.774C144.731 256.394 144.711 258.024 144.691 259.683C144.691 260.969 144.691 262.264 144.691 263.55C144.78 265.072 144.996 266.584 145.123 268.105C145.123 268.439 145.752 269.764 144.849 269.764C144.247 269.763 143.646 269.717 143.052 269.627C142.946 269.596 142.837 269.58 142.728 269.578C141.638 269.627 140.548 269.696 139.468 269.755L134.519 269.961C134.337 269.99 134.151 269.99 133.969 269.961C133.798 269.882 133.64 269.78 133.498 269.656C133.598 269.552 133.681 269.433 133.743 269.303C133.856 268.986 133.925 268.656 133.95 268.321C133.95 267.448 133.842 266.564 133.851 265.69C133.851 263.973 133.999 262.264 133.999 260.556C133.999 258.848 133.891 257.012 133.881 255.245C133.881 254.47 133.341 253.979 133.017 253.38C132.693 252.781 132.261 252.399 131.907 251.839C130.958 250.399 130.015 248.95 129.079 247.49C128.795 247.039 128.539 246.567 128.255 246.116C127.459 244.889 126.693 243.662 125.869 242.464C124.73 240.805 123.542 239.185 122.383 237.556C121.794 236.721 121.214 235.867 120.625 235.023L120.439 234.817C120.105 234.522 119.938 233.786 121.627 233.786C121.882 233.786 122.167 233.786 122.432 233.786C122.935 233.702 123.444 233.656 123.954 233.649C124.484 233.723 125.009 233.832 125.525 233.973C126.726 234.205 127.958 234.231 129.168 234.051C130.071 233.914 131.004 233.914 131.917 233.776C132.634 233.668 133.331 233.423 134.038 233.285C134.142 233.273 134.248 233.281 134.349 233.31C134.45 233.338 134.545 233.387 134.627 233.452C135.158 234.08 135.622 234.761 136.012 235.484C137.288 237.791 138.604 240.079 139.841 242.356C140.479 243.534 140.98 244.771 141.618 246.135C141.932 245.664 142.168 245.35 142.364 245.016L146.39 238.262C147.205 236.898 147.991 235.524 148.786 234.149C148.848 234.078 148.895 233.994 148.923 233.904C149.797 232.068 149.601 232.814 150.887 232.785C151.53 232.94 152.189 233.019 152.851 233.02C153.627 233.02 155.581 232.902 155.797 233.138C156.013 233.374 152.252 240.01 151.761 241.08Z" fill="#61302A"/>
<path d="M149.758 53.0105C149.362 53.0203 148.971 52.9141 148.634 52.7047C148.298 52.4954 148.029 52.1922 147.863 51.8325C146.675 49.6924 144.917 49.5059 143.71 51.2337C143.522 51.5414 143.374 51.8711 143.268 52.2153C143.099 52.762 142.737 53.2284 142.249 53.5267C141.76 53.825 141.18 53.9346 140.617 53.8351C140.248 53.8404 139.896 53.9881 139.635 54.2474C138.319 55.7984 137.975 57.0452 140.204 57.8796C140.371 57.9483 140.538 58.0367 140.823 58.1741C140.666 58.5275 140.567 58.7729 140.44 59.0085C139.654 60.4712 139.831 61.8063 140.921 62.6702C142.011 63.534 143.219 63.4948 144.534 62.3266C145.516 61.4136 145.919 61.4234 146.94 62.3855C147.171 62.6587 147.469 62.8682 147.804 62.9942C148.139 63.1202 148.501 63.1585 148.855 63.1053C149.209 63.0522 149.544 62.9095 149.827 62.6908C150.111 62.472 150.334 62.1844 150.475 61.8554C150.793 61.0412 150.897 60.1593 150.779 59.2932C150.661 58.3606 150.622 57.6538 151.584 57.1433C151.925 56.9145 152.165 56.5628 152.252 56.1617C152.264 55.4292 152.023 54.7151 151.568 54.1407C151.113 53.5662 150.474 53.1669 149.758 53.0105ZM142.688 57.5655C142.651 56.7252 142.944 55.9037 143.506 55.2777C144.068 54.6516 144.853 54.2711 145.693 54.218C146.36 54.1695 147.019 54.3845 147.529 54.8168C147.962 55.3747 148.162 56.078 148.089 56.7801C148.089 58.5864 146.694 60.1669 145.143 60.1669C144.816 60.1519 144.494 60.0721 144.198 59.9323C143.901 59.7924 143.635 59.5952 143.415 59.3521C142.947 58.8637 142.686 58.2126 142.688 57.536V57.5655Z" fill="#BAB2D9"/>
<path d="M30.3601 54.2081C30.1165 53.6078 29.6514 53.1242 29.061 52.8574C28.4706 52.5906 27.8002 52.561 27.1886 52.7749C25.8925 53.1872 25.7746 52.6571 25.6764 51.6067C25.6747 51.2659 25.5775 50.9324 25.396 50.6439C25.2145 50.3554 24.9559 50.1235 24.6493 49.9744C24.3428 49.8252 24.0007 49.7648 23.6616 49.8C23.3226 49.8352 23.0001 49.9645 22.7308 50.1734C22.246 50.4848 21.8555 50.9227 21.6016 51.4398C21.1205 52.4215 20.4626 52.9712 19.3825 52.716C19.0487 52.716 18.7738 52.716 18.4988 52.716C17.9181 52.6798 17.3415 52.8349 16.8574 53.1576C16.3732 53.4803 16.0082 53.9528 15.8183 54.5026C15.5139 55.7788 16.3583 56.2402 17.2911 56.7703C17.4916 56.9276 17.6571 57.125 17.7771 57.3497C17.8971 57.5745 17.969 57.8218 17.9882 58.0759C17.9667 58.6503 17.8403 59.2159 17.6151 59.7448C17.4363 60.3195 17.4343 60.9347 17.6094 61.5105C17.7845 62.0864 18.1285 62.5964 18.597 62.9745C18.943 63.3019 19.4044 63.4794 19.8807 63.4683C20.357 63.4573 20.8096 63.2586 21.1401 62.9156C22.3086 61.5118 23.3592 61.9339 24.5276 62.7389C24.5276 62.7389 24.6062 62.7389 24.6356 62.7389C25.4408 63.1904 26.2558 63.5733 27.0904 62.8665C27.4696 62.5617 27.7457 62.1475 27.881 61.6803C28.0163 61.213 28.0042 60.7154 27.8464 60.2552C27.7573 60.0404 27.715 59.8092 27.7221 59.5767C27.7293 59.3443 27.7858 59.1161 27.888 58.9072C27.9901 58.6983 28.1356 58.5135 28.3146 58.3651C28.4937 58.2167 28.7022 58.1081 28.9265 58.0465C30.203 57.5556 30.8314 55.6904 30.3601 54.2081ZM22.8093 59.5582C22.3937 59.5703 21.9798 59.4992 21.592 59.3492C21.2042 59.1992 20.8503 58.9732 20.551 58.6846C20.2976 58.4161 20.1002 58.0999 19.9704 57.7544C19.8406 57.4089 19.7809 57.041 19.7949 56.6721C19.844 54.8757 21.2481 53.2166 22.7406 53.1872C23.5837 53.209 24.3843 53.5617 24.9695 54.1688C25.5931 54.7871 25.9462 55.6272 25.9514 56.5052C25.9333 57.3246 25.5937 58.104 25.0059 58.6752C24.418 59.2464 23.6291 59.5636 22.8093 59.5582Z" fill="#BAB2D9"/>
<path d="M48.9571 27.2906C45.923 27.1139 44.3029 25.5726 44.2931 22.8338C44.3037 22.3545 44.4109 21.8823 44.6083 21.4454C44.8057 21.0086 45.0892 20.616 45.4419 20.2912C46.4143 19.3746 47.6991 18.8622 49.0356 18.858H49.1731C49.8299 18.8461 50.4816 18.9749 51.0845 19.2357C51.6874 19.4964 52.2275 19.8831 52.6686 20.3698C52.9672 20.7287 53.1848 21.1477 53.3068 21.5983C53.4288 22.0489 53.4523 22.5205 53.3756 22.981C53.3913 23.538 53.2957 24.0926 53.0945 24.6122C52.8933 25.1319 52.5905 25.6062 52.2037 26.0075C51.817 26.4088 51.3541 26.7289 50.8422 26.9492C50.3303 27.1695 49.7795 27.2856 49.2222 27.2906H48.9571ZM49.2418 20.2912C48.5232 20.3993 47.8578 20.7336 47.3422 21.2455C46.8266 21.7575 46.4877 22.4204 46.3747 23.1381C46.3594 23.4751 46.4163 23.8114 46.5417 24.1246C46.6671 24.4378 46.858 24.7205 47.1016 24.9539C47.3452 25.1872 47.636 25.3658 47.9543 25.4776C48.2726 25.5894 48.6112 25.6318 48.9473 25.6021H49.0945C49.8069 25.6505 50.5105 25.4219 51.0583 24.964C51.2655 24.7575 51.4282 24.5107 51.5363 24.2389C51.6444 23.967 51.6956 23.6759 51.6867 23.3835C51.7192 22.7321 51.5474 22.0868 51.1953 21.5377C50.8433 20.9887 50.3285 20.5632 49.7229 20.3207H49.1731L49.2418 20.2912Z" fill="#BAB2D9"/>
<path d="M32.53 30.4319C32.3642 30.446 32.1988 30.4003 32.0638 30.3031C31.9287 30.2059 31.8329 30.0635 31.7936 29.9018C31.3483 28.2881 31.0007 26.649 30.7528 24.9935C30.635 24.2736 30.5073 23.5471 30.3699 22.8141C30.3406 22.6801 30.3654 22.5399 30.4389 22.4241C30.5125 22.3083 30.6288 22.2262 30.7626 22.1957C31.8651 21.9309 32.997 21.8088 34.1305 21.8325H34.3662C35.0113 21.8948 35.6178 22.1681 36.0917 22.61C36.5657 23.052 36.8807 23.6378 36.9878 24.2768C37.0197 24.8682 36.8576 25.4537 36.5262 25.9445C36.1948 26.4353 35.7122 26.8045 35.1517 26.9961C34.9946 27.055 34.8277 27.0942 34.6706 27.1433C34.5135 27.1924 34.3171 27.2317 34.1502 27.2906C34.0234 27.3174 33.9036 27.3705 33.7987 27.4466C33.6938 27.5228 33.6062 27.6201 33.5414 27.7323C33.4932 27.8405 33.4683 27.9575 33.4683 28.0759C33.4683 28.1943 33.4932 28.3114 33.5414 28.4195C33.7089 28.7707 33.7736 29.1621 33.7279 29.5484V29.7055C33.7311 29.8745 33.67 30.0384 33.557 30.1641C33.444 30.2898 33.2876 30.368 33.1192 30.3829C32.9405 30.435 32.7554 30.4614 32.5693 30.4614L32.53 30.4319ZM33.7181 23.2952C33.5614 23.2802 33.4036 23.2802 33.2468 23.2952C33.1089 23.3082 32.9759 23.3531 32.8583 23.4264C32.7407 23.4996 32.6418 23.5992 32.5693 23.7173C32.314 24.1787 32.5693 24.8757 32.8148 25.5039L32.9032 25.7199H33.1585C34.7884 25.3567 35.1222 24.9935 35.299 24.7382C35.3407 24.6526 35.3623 24.5586 35.3623 24.4634C35.3623 24.3681 35.3407 24.2741 35.299 24.1885C35.1848 23.8808 34.9736 23.6186 34.6973 23.4416C34.421 23.2645 34.0945 23.1821 33.7672 23.2068L33.7181 23.2952Z" fill="#BAB2D9"/>
<path d="M61.9573 25.7101C61.81 25.7101 61.4565 25.7101 61.4173 25.4254C61.1718 24.1198 61.0147 22.284 60.8674 20.6643C60.779 19.6826 60.7005 18.7598 60.6023 18.0039V17.8567C60.5139 17.3266 60.6023 17.1106 60.9361 17.0517C61.27 16.9928 61.6235 16.9241 61.8297 16.9143C61.9593 16.8984 62.0905 16.926 62.2028 16.9928C62.3206 17.1106 62.3402 17.3462 62.3599 17.8174C62.3599 18.0039 62.3599 18.1904 62.3599 18.3966C62.3599 18.6027 62.3599 18.9267 62.3599 19.1819V19.8102L65.3056 19.6041V19.3292C65.3056 19.0249 65.2466 18.7107 65.2074 18.4064C65.1269 17.913 65.0842 17.4142 65.0797 16.9143C65.0797 16.8161 65.0797 16.5314 65.875 16.4823H66.1598H66.906L67.3479 19.8887C67.6228 22.019 67.9174 24.2277 67.9272 24.4633C67.94 24.4982 67.94 24.5365 67.9272 24.5713C67.7668 24.6925 67.5681 24.7518 67.3675 24.7382H67.3577C67.0684 24.7569 66.7812 24.6774 66.5427 24.5124C66.5091 24.4866 66.4813 24.4541 66.461 24.4169C66.4407 24.3797 66.4284 24.3387 66.4249 24.2965C66.4249 23.9136 66.3071 23.2363 66.2187 22.5785C66.2187 22.2644 66.0616 21.3809 66.0616 21.3809L65.8652 21.43C65.6827 21.3654 65.4889 21.3386 65.2957 21.3514H65.0012L64.1469 21.4398L63.2632 21.5281L62.841 21.5969V21.8815C62.841 22.4607 62.9588 22.9516 63.0276 23.413C63.0963 23.8743 63.165 24.3946 63.2043 25.0131C63.2097 25.1171 63.1745 25.2192 63.1061 25.2978C62.8368 25.5453 62.4896 25.6911 62.1242 25.7101H61.9573Z" fill="#BAB2D9"/>
<path d="M77.0097 24.3946C76.7246 24.4129 76.4386 24.3797 76.1653 24.2964V22.8632C76.1653 21.5379 76.1653 20.2127 76.1653 18.8874C76.1653 18.3377 76.1162 17.7781 76.0671 17.2677C75.9379 16.7399 76.0115 16.1829 76.2733 15.7068C76.4446 15.5417 76.6481 15.4138 76.8711 15.3311C77.0941 15.2483 77.3319 15.2124 77.5694 15.2258H78.0996C79.04 15.2214 79.977 15.3368 80.8882 15.5694C81.2569 15.6793 81.5874 15.8902 81.8425 16.1782C82.0976 16.4661 82.267 16.8197 82.3316 17.1989C82.4338 17.6422 82.4098 18.1052 82.2623 18.5355C82.1148 18.9658 81.8497 19.3462 81.4969 19.6335C80.8882 20.1538 80.9373 20.4974 81.2809 21.0667C81.6246 21.6361 82.0763 22.4607 82.4788 23.1872L82.9894 24.1688C82.6739 24.2848 82.3431 24.3542 82.0075 24.375H81.7719C81.3202 24.375 81.0158 24.2866 80.9667 24.1296C80.8367 23.7518 80.6859 23.3815 80.5151 23.0203C80.2976 22.5585 80.1106 22.083 79.9554 21.5968C79.916 21.2827 79.7576 20.9956 79.5128 20.7947C79.268 20.5938 78.9555 20.4944 78.6396 20.517H78.4334H78.1683H77.913L78.1291 24.0805C77.884 24.2298 77.6009 24.3048 77.3141 24.2964L77.0097 24.3946ZM77.8247 17.091C77.6244 17.6684 77.6525 18.3006 77.9032 18.858C77.9702 18.9609 78.06 19.0472 78.1655 19.1102C78.271 19.1731 78.3895 19.2111 78.512 19.2212C78.8078 19.2652 79.1064 19.2882 79.4055 19.2899H79.6314C80.4758 19.231 80.898 18.8678 80.9471 18.1708C80.9664 18.0365 80.9589 17.8998 80.9252 17.7684C80.8915 17.637 80.8322 17.5135 80.7507 17.4051C80.4463 17.0713 79.7688 16.9241 78.1094 16.875H77.8738L77.8247 17.091Z" fill="#BAB2D9"/>
<path d="M107.939 25.7788C107.818 25.7883 107.697 25.7883 107.576 25.7788C106.619 25.6962 105.669 25.5354 104.738 25.2978C104.567 25.1967 104.425 25.0533 104.325 24.8814C104.225 24.7095 104.172 24.5148 104.169 24.3161C104.463 22.8436 104.817 21.3711 105.151 19.9084V19.7906L105.593 17.9156C105.701 17.4542 105.877 16.9928 106.388 16.983C106.587 16.9908 106.783 17.034 106.967 17.1106C107.247 17.2051 107.537 17.2645 107.831 17.2873C108.077 17.301 108.32 17.3404 108.558 17.4051C109.043 17.5301 109.499 17.7467 109.903 18.0432C110.17 18.2303 110.386 18.4808 110.531 18.7721C110.677 19.0635 110.748 19.3865 110.738 19.712C110.697 20.0213 110.588 20.3175 110.418 20.5791C110.248 20.8407 110.022 21.061 109.756 21.2238L109.491 21.4103L109.707 21.6459C110.055 21.9775 110.288 22.4119 110.371 22.8854C110.454 23.3589 110.383 23.8466 110.168 24.2768C109.998 24.7136 109.702 25.0897 109.317 25.3573C108.932 25.6248 108.477 25.7716 108.008 25.7788H107.939ZM107.026 21.5968C106.77 21.5999 106.516 21.6362 106.27 21.7048L106.054 21.7539V21.9699C106.054 22.1368 106.054 22.3037 106.054 22.4804C106.054 23.197 106.054 23.7173 106.29 23.9431C106.654 24.2541 107.116 24.4278 107.596 24.4339C107.826 24.4347 108.054 24.386 108.264 24.2912C108.474 24.1964 108.661 24.0576 108.813 23.8842C109.074 23.5648 109.197 23.1555 109.157 22.7454C108.932 22.401 108.627 22.1165 108.268 21.9164C107.909 21.7162 107.506 21.6066 107.095 21.5968H107.026ZM107.272 18.6518C107.069 18.6499 106.869 18.7006 106.692 18.7991C106.388 19.0543 106.339 19.9869 106.339 19.9967V20.2127L106.545 20.2716C107.193 20.4679 107.861 20.5955 108.509 20.7232L109 20.8213L109.068 20.5661C109.223 20.1581 109.223 19.7077 109.068 19.2997C108.988 19.1706 108.883 19.0595 108.758 18.9733C108.633 18.8872 108.491 18.8278 108.342 18.7991C108.022 18.7087 107.692 18.6592 107.36 18.6518H107.272Z" fill="#BAB2D9"/>
<path d="M136.11 31.9634C135.815 31.987 135.523 31.8992 135.29 31.7174C135.057 31.5356 134.901 31.273 134.853 30.9817C134.794 30.0491 134.008 29.4306 132.703 29.2932C132.193 29.3817 131.723 29.6251 131.357 29.9902L131.043 30.2454C130.974 30.3007 130.886 30.3287 130.798 30.324C130.551 30.3117 130.31 30.2402 130.096 30.1155C129.883 29.9908 129.702 29.8165 129.57 29.6073C129.532 29.5136 129.526 29.4101 129.553 29.3125C129.579 29.215 129.637 29.1288 129.718 29.0674L131.573 26.839C132.555 25.6806 133.439 24.5812 134.519 23.3737C134.601 23.284 134.701 23.213 134.813 23.1655C134.925 23.1181 135.046 23.0953 135.167 23.0988C135.619 23.0988 135.943 23.3541 135.972 23.678C136.169 25.4352 136.306 27.1041 136.453 28.8809V28.9987C136.522 29.892 136.601 30.805 136.679 31.7376V31.8357C136.547 31.9356 136.382 31.9813 136.218 31.9634H136.11ZM134.627 24.8855C134.078 25.4459 133.606 26.0763 133.223 26.7605L132.801 27.3986L135.039 28.5864V28.1545C135.154 27.1203 135.154 26.0767 135.039 25.0425L134.941 24.6499L134.627 24.8855Z" fill="#BAB2D9"/>
<path d="M95.0667 24.3455C94.8016 24.3455 94.4775 24.3455 94.0848 24.267C93.3121 24.1804 92.5352 24.1378 91.7577 24.1394H91.5417C91.3977 24.1673 91.249 24.1576 91.1099 24.1114C90.9707 24.0652 90.8458 23.9839 90.7471 23.8754C90.6485 23.7669 90.5794 23.6349 90.5466 23.492C90.5138 23.3491 90.5184 23.2002 90.5598 23.0595L90.8642 20.6152C91.0213 19.1917 91.1686 17.7781 91.3453 16.3645C91.3453 16.1387 91.7184 15.7362 91.9541 15.7264H92.2388C93.3374 15.7254 94.4353 15.7811 95.5282 15.8933C95.7427 15.8979 95.947 15.986 96.0977 16.1387C96.1649 16.2114 96.212 16.3003 96.2344 16.3967C96.2568 16.4931 96.2537 16.5936 96.2253 16.6885C96.2253 17.1695 96.0878 17.3462 95.6558 17.3756H95.5282H95.0372C94.8073 17.3739 94.5777 17.3576 94.3499 17.3266C94.1437 17.3266 93.967 17.3266 93.8099 17.3266H93.6528C92.9556 17.3756 92.6709 17.7585 92.5039 18.7696V19.0249L93.2207 19.1721C93.751 19.2899 94.291 19.4175 94.8408 19.4961C95.03 19.5036 95.2153 19.5513 95.3846 19.6359C95.5539 19.7206 95.7032 19.8402 95.8227 19.9869C95.8847 20.1458 95.9098 20.3167 95.8962 20.4867C95.8826 20.6568 95.8306 20.8215 95.7442 20.9686L92.2978 20.8213C92.2166 21.4503 92.2166 22.087 92.2978 22.716C92.445 23.0399 92.8869 23.0792 93.5742 23.0792L96.0486 23.2068C96.0486 23.8252 95.9406 24.2965 95.2631 24.3357L95.0667 24.3455Z" fill="#BAB2D9"/>
<path d="M122.078 28.8514C121.804 28.7827 121.421 28.6845 121.018 28.5471C120.277 28.3052 119.523 28.1052 118.76 27.9483L118.141 27.8698C117.998 27.8507 117.861 27.8025 117.738 27.7282C117.615 27.6539 117.508 27.5551 117.424 27.4378C117.365 27.3086 117.334 27.1679 117.334 27.0255C117.334 26.8831 117.365 26.7424 117.424 26.6132L118.171 24.3161C118.603 22.9614 119.457 21.6263 119.928 20.2814C119.998 20.1488 120.097 20.0339 120.218 19.9454C120.338 19.8569 120.478 19.7972 120.625 19.7709C121.807 20.0098 122.974 20.3146 124.121 20.6839C124.239 20.6839 125.181 21.0275 125.289 21.2533C125.324 21.3304 125.342 21.4141 125.342 21.4987C125.342 21.5833 125.324 21.6669 125.289 21.7441C124.965 22.8338 123.325 21.9306 123.325 21.9306C123.1 21.8717 122.874 21.8226 122.658 21.7441C122.44 21.6568 122.213 21.5974 121.98 21.5674L121.754 21.5969C121.116 21.5969 120.773 22.0681 120.557 22.7847L120.468 23.0301L121.136 23.3246C121.637 23.5504 122.118 23.7762 122.658 23.9725C122.982 24.0903 123.424 24.2965 123.532 24.6597C123.64 25.0229 123.532 25.5039 123.247 25.6414C122.183 25.3668 121.155 24.9681 120.183 24.4535C119.722 24.2179 119.202 26.1126 119.604 26.7016C119.732 26.9077 120.233 27.0353 121.057 27.1924C121.509 27.2709 122.884 27.4575 123.021 27.7814C123.159 28.1054 122.471 28.9496 122.078 28.8514Z" fill="#BAB2D9"/>
<path d="M61.5253 45.8344C60.6843 45.8188 59.8529 45.6525 59.0706 45.3436C58.545 44.9944 58.1618 44.4685 57.9905 43.8613C57.9095 43.696 57.8625 43.5161 57.8524 43.3322C57.8423 43.1484 57.8692 42.9645 57.9316 42.7912C58.132 42.5661 58.39 42.3998 58.6778 42.3102C58.8644 42.2219 59.0607 42.1433 59.2669 42.0255V42.0746C59.2306 42.733 59.4565 43.3789 59.8953 43.8711C60.0321 44.0138 60.1969 44.1268 60.3794 44.2028C60.5619 44.2788 60.7581 44.3163 60.9558 44.3128C61.9768 44.312 62.9722 43.9928 63.8033 43.3999C63.9063 43.3327 63.989 43.2387 64.0427 43.128C64.0963 43.0173 64.1187 42.8941 64.1077 42.7716C64.0561 42.5522 63.9524 42.3485 63.8054 42.1776C63.6584 42.0068 63.4725 41.8738 63.2632 41.7899C62.4053 41.4317 61.5041 41.1874 60.5827 41.0635C58.9135 40.769 58.0592 40.3371 58.0297 38.7566C58.0312 38.058 58.2761 37.3819 58.7224 36.8444C59.1686 36.3069 59.7882 35.9417 60.4747 35.8115C60.8995 35.7386 61.3299 35.7025 61.7609 35.7036C62.7156 35.6817 63.6575 35.9265 64.4808 36.4104L64.579 36.4693C64.6857 36.5208 64.7849 36.5869 64.8735 36.6656C65.5609 37.3429 66.1794 38.0694 65.5412 38.8056C65.453 38.9145 65.3426 39.0033 65.2172 39.0659C65.0919 39.1286 64.9546 39.1637 64.8146 39.1689C64.2795 39.0831 63.7978 38.7949 63.4694 38.3639C63.2562 38.0642 62.9752 37.8192 62.6493 37.6486C62.3234 37.478 61.9618 37.3867 61.594 37.3822C61.3628 37.3852 61.1326 37.4115 60.9067 37.4608C60.4845 37.5589 59.7873 37.8534 59.6695 38.2166C59.6489 38.4625 59.6913 38.7096 59.7926 38.9346C59.894 39.1596 60.051 39.3551 60.2488 39.5026C61.0296 39.8571 61.8333 40.1588 62.6545 40.4058L63.6363 40.7199L63.7935 40.7788C63.9187 40.8329 64.0509 40.8693 64.1862 40.8868C65.2859 41.0144 65.9929 41.574 65.9929 42.3102C65.9241 43.1436 65.5458 43.921 64.9324 44.4895C64.0174 45.3676 62.7936 45.8507 61.5253 45.8344Z" fill="#BAB2D9"/>
<path d="M54.6815 45.4221C53.0319 45.4221 51.4118 45.2847 49.6837 45.1865L47.9752 45.0883V44.2441C47.9752 43.7532 47.9752 43.2624 47.9752 42.7716C47.9752 41.407 47.877 39.8265 47.7788 38.3246C47.7003 37.0484 47.9065 36.3612 49.2713 36.1943C50.4965 36.0502 51.7295 35.9813 52.9632 35.9882H54.4262C54.6717 35.9882 54.8779 36.3514 55.1037 36.7245C55.1929 36.8807 55.2913 37.0314 55.3983 37.176L55.2314 37.6374H51.1467C50.5183 37.6374 50.1648 37.6374 49.9783 37.8828C49.7917 38.1283 49.831 38.462 49.9783 39.3161L50.0273 39.532H53.6014C53.8033 39.5055 54.0086 39.5205 54.2044 39.5763C54.4003 39.632 54.5827 39.7272 54.7404 39.856C54.8588 39.998 54.9469 40.1626 54.9992 40.3399C55.0516 40.5172 55.0671 40.7033 55.0448 40.8868L49.9193 41.2598V43.0661L53.9745 43.4587H54.1807C54.4303 43.4335 54.6814 43.4885 54.8975 43.6158C55.2208 43.9003 55.4417 44.2832 55.5259 44.7055C55.5146 44.8001 55.4692 44.8873 55.3983 44.9509C55.1986 45.1609 54.9372 45.3018 54.6521 45.3534L54.6815 45.4221Z" fill="#BAB2D9"/>
<path d="M70.6961 45.3436C70.6961 44.735 70.6274 44.1361 70.5881 43.5275C70.4997 42.1139 70.4016 40.6512 70.3819 39.2179C70.3819 38.4228 70.2346 37.9908 69.5179 37.9908H69.2233C69.0336 38.0009 68.8435 38.0009 68.6538 37.9908H67.5737V36.3711H69.4491L73.2785 36.2042H73.4258C74.4077 36.2042 74.8299 36.6852 74.8986 37.7258L71.9529 37.8829L72.0806 38.9431C72.1984 39.856 72.3064 40.769 72.3359 41.7016C72.3414 42.6063 72.2988 43.5108 72.2082 44.411C72.2082 44.8331 72.1395 45.2454 72.1199 45.6675L70.6961 45.3436Z" fill="#BAB2D9"/>
<path d="M115.863 45.1571H114.086H113.104C112.956 45.1709 112.808 45.1398 112.679 45.068C112.549 44.9962 112.444 44.887 112.377 44.7546C112.322 44.6173 112.309 44.467 112.339 44.3222C112.368 44.1773 112.44 44.0444 112.544 43.9398C113.497 42.9421 114.51 42.0045 115.578 41.1322C115.786 40.9598 116.018 40.8177 116.266 40.7101C116.553 40.5829 116.818 40.4106 117.051 40.1996C117.365 39.856 117.807 39.2179 117.699 38.7663C117.523 38.0694 116.874 37.6767 115.863 37.6767H115.755C115.51 37.7031 115.275 37.7883 115.07 37.9251C114.865 38.0618 114.696 38.246 114.577 38.462C114.531 38.6978 114.438 38.9217 114.302 39.1197C114.13 39.3194 113.91 39.472 113.662 39.563C113.415 39.6541 113.148 39.6806 112.888 39.64H112.711C112.544 39.1288 112.501 38.5851 112.587 38.0541C112.672 37.523 112.883 37.0201 113.202 36.587C113.411 36.3249 113.667 36.105 113.958 35.9391C114.445 35.6707 114.993 35.5321 115.549 35.5366C116.06 35.5334 116.565 35.6385 117.032 35.845C117.499 36.0514 117.918 36.3545 118.259 36.7343C118.628 37.0692 118.905 37.4922 119.066 37.9636C119.227 38.435 119.265 38.9394 119.178 39.4297C119.09 39.9201 118.88 40.3802 118.567 40.7672C118.253 41.1542 117.847 41.4554 117.385 41.6427C116.642 42.0261 115.935 42.4763 115.274 42.9876L114.754 43.4391H115.441L116.501 43.498C117.14 43.498 117.729 43.5569 118.465 43.6158C118.547 43.603 118.631 43.6081 118.71 43.6309C118.79 43.6537 118.864 43.6936 118.926 43.7478C118.989 43.802 119.039 43.8692 119.073 43.9448C119.107 44.0203 119.124 44.1024 119.123 44.1852C119.123 44.568 118.936 45 118.691 45.0393C117.752 45.1395 116.807 45.1789 115.863 45.1571Z" fill="#BAB2D9"/>
<path d="M109.167 45.1571L104.787 45.0785C104.316 45.0785 103.521 44.9411 103.324 44.6761C103.308 44.6442 103.299 44.6088 103.299 44.573C103.299 44.5371 103.308 44.5018 103.324 44.4699C103.331 44.1151 103.41 43.7654 103.555 43.4415C103.7 43.1177 103.909 42.8264 104.169 42.5851C104.896 41.9792 105.675 41.4372 106.496 40.9653L107.281 40.4843C108.028 40.0033 108.784 39.4339 108.322 38.5897C108.089 38.313 107.801 38.0873 107.477 37.9269C107.152 37.7664 106.798 37.6746 106.437 37.6571H106.329C106.117 37.6454 105.905 37.6788 105.707 37.7549C105.509 37.8311 105.33 37.9483 105.18 38.0988C105.048 38.2712 104.956 38.4706 104.91 38.6827C104.864 38.8949 104.866 39.1145 104.915 39.3259C104.74 39.3942 104.553 39.4307 104.365 39.4339C104.279 39.4404 104.193 39.4289 104.112 39.4002C104.031 39.3715 103.956 39.3261 103.894 39.267C103.719 39.0226 103.645 38.7202 103.688 38.4228C103.686 38.2238 103.713 38.0255 103.766 37.8338C104.003 37.2363 104.428 36.7325 104.978 36.3993C105.527 36.0661 106.171 35.9217 106.81 35.9882C107.193 35.9901 107.574 36.0295 107.949 36.106C108.63 36.3024 109.231 36.7111 109.664 37.2726C110.096 37.8341 110.339 38.5191 110.355 39.2278C110.247 40.2094 108.568 41.7408 107.272 42.0452C106.201 42.2906 105.642 42.536 105.308 43.2821L105.141 43.6453H105.534C106.201 43.714 106.83 43.7533 107.448 43.7926C108.214 43.8515 108.951 43.9005 109.756 43.9791C109.803 43.9956 109.847 44.0215 109.884 44.0552C109.921 44.089 109.951 44.1298 109.972 44.1754C110.024 44.27 110.052 44.3764 110.052 44.4846C110.052 44.5928 110.024 44.6992 109.972 44.7939C109.91 44.8955 109.821 44.9785 109.716 45.0338C109.61 45.0891 109.492 45.1148 109.373 45.108L109.167 45.1571Z" fill="#BAB2D9"/>
<path d="M89.4306 45.324C87.6927 45.324 86.3573 45.324 85.5031 45.2749C85.3998 45.2539 85.3084 45.1942 85.2478 45.108C85.0365 44.8697 84.906 44.5708 84.8746 44.2539C84.9242 43.7603 85.1003 43.2877 85.3858 42.8819C85.6713 42.4761 86.0566 42.1507 86.5046 41.9372C87.4865 41.3678 88.4684 40.7984 89.2932 40.2291C89.6368 40.0131 89.9903 39.748 90.0296 39.4241C90.0401 39.3242 90.027 39.2233 89.9911 39.1294C89.9553 39.0356 89.8978 38.9516 89.8234 38.8842C89.4185 38.3734 88.8435 38.025 88.2033 37.9025C87.7639 37.9631 87.3496 38.1431 87.0054 38.4228C86.8452 38.5379 86.678 38.6429 86.5046 38.7369C86.2324 38.9164 85.924 39.0337 85.6012 39.0805C85.4795 39.0823 85.3611 39.0405 85.2674 38.9627C84.9434 38.678 85.1987 37.981 85.4245 37.716C85.7639 37.2846 86.1961 36.9353 86.6891 36.694C87.1821 36.4527 87.7231 36.3255 88.272 36.322C88.5024 36.3221 88.7323 36.3418 88.9593 36.3809C89.5478 36.5568 90.0811 36.8813 90.5076 37.3232C90.9342 37.7652 91.2396 38.3095 91.3944 38.9038C91.8166 39.964 91.0606 41.1224 89.4306 41.8488C88.8808 42.0942 88.3407 42.3986 87.8105 42.6832L86.6813 43.3115L87.2115 43.5766H91.3944C91.6301 43.5766 91.6595 44.1459 91.6595 44.3914C91.6595 45.0295 91.5319 45.373 91.4042 45.373L89.4306 45.324Z" fill="#BAB2D9"/>
<path d="M97.2072 45.8344C96.7001 45.8337 96.2 45.7165 95.7454 45.4918C95.2908 45.2671 94.894 44.941 94.5855 44.5386C93.7145 43.2712 93.3522 41.7226 93.5705 40.2003C93.7887 38.6781 94.5717 37.2937 95.7638 36.322C96.326 35.8862 97.0163 35.6481 97.7276 35.6446C99.1513 35.6446 100.418 36.7539 101.135 38.5896C101.263 38.9651 101.348 39.3536 101.39 39.748C101.39 39.9738 101.449 40.1407 101.478 40.2978C101.473 41.1927 101.277 42.0763 100.905 42.8902C100.532 43.7042 99.9917 44.4299 99.3183 45.0196C99.0375 45.2879 98.7064 45.4979 98.3441 45.6378C97.9818 45.7776 97.5954 45.8444 97.2072 45.8344ZM97.7963 37.4411C97.3653 37.4439 96.9487 37.5966 96.6181 37.873C96.1869 38.2518 95.853 38.7287 95.6445 39.2634C95.4361 39.7981 95.3591 40.375 95.4202 40.9457C95.4403 41.5144 95.5982 42.0697 95.8805 42.5638C96.1627 43.058 96.5607 43.4763 97.0403 43.7827C97.2637 43.901 97.5142 43.9585 97.7669 43.9496C98.018 43.9543 98.2667 43.9005 98.4935 43.7925C99.0084 43.5997 99.4362 43.2271 99.6979 42.7435C99.9596 42.26 100.037 41.6981 99.9172 41.1616L99.8583 40.6414C99.7994 40.1996 99.7503 39.7578 99.6816 39.3161C99.6343 39.051 99.5518 38.7935 99.4361 38.5504C99.2998 38.2245 99.0708 37.9457 98.7776 37.7485C98.4844 37.5513 98.1398 37.4445 97.7865 37.4411H97.7963Z" fill="#BAB2D9"/>
<path d="M76.4696 45.3734C76.297 45.3728 76.1264 45.336 75.9689 45.2654C75.7804 45.1637 75.6176 45.0202 75.4931 44.8458C75.3687 44.6715 75.2857 44.471 75.2506 44.2597C75.2156 44.0484 75.2293 43.8319 75.2909 43.6267C75.3524 43.4215 75.46 43.2331 75.6056 43.076C75.7373 42.9442 75.899 42.8465 76.0769 42.7912C76.1987 42.743 76.3289 42.7196 76.4598 42.7225C76.6459 42.7304 76.8286 42.7753 76.9971 42.8546C77.1657 42.9338 77.3168 43.0458 77.4417 43.184C77.5705 43.3114 77.6705 43.465 77.7349 43.6344C77.7992 43.8037 77.8265 43.985 77.8148 44.1658C77.7688 44.4933 77.6086 44.794 77.3625 45.0149C77.1164 45.2358 76.8002 45.3628 76.4696 45.3734Z" fill="#BAB2D9"/>
<path d="M124.946 120.383C124.563 118.174 124.16 115.975 123.866 113.757C123.755 111.901 123.01 110.141 121.754 108.77C120.223 107.209 120.93 104.097 119.251 104.038C118.063 104.038 118.269 107.523 117.287 107.601C116.305 107.68 115.794 106.679 115.627 105.187C115.56 104.761 115.38 104.361 115.107 104.028C114.125 103.37 113.379 105.01 113.291 105.491C112.927 107.091 111.818 107.346 110.423 107.454C108.803 107.523 107.193 107.729 105.583 107.906C104.797 108.004 104.601 108.524 105.033 109.113C105.526 109.701 106.101 110.213 106.741 110.635C108.253 111.675 108.332 112.775 106.82 113.766C105.606 114.59 104.343 115.341 103.04 116.014C101.616 116.731 100.222 117.673 98.3855 117.379C98.4689 116.101 98.4689 114.819 98.3855 113.541C97.941 110.185 98.5519 106.775 100.133 103.783C101.42 101.211 102.509 98.678 102.215 95.7232C102.156 95.0753 102.382 94.5353 103.246 94.5157C103.749 94.4792 104.24 94.3423 104.689 94.1132C105.867 93.5831 106.908 92.9058 107.016 91.7179L94.6052 88.0563C94.6052 85.7493 94.7623 83.6191 94.6052 81.5183C94.3732 79.1306 94.8878 76.7297 96.078 74.6466C96.8635 73.2428 97.5312 71.7016 98.2676 70.3076C99.1219 68.6289 99.9761 66.9404 100.889 65.2912C101.488 64.2016 102.254 64.2114 103.059 65.1832C103.463 65.7969 103.992 66.3187 104.611 66.7147C105.402 67.1542 106.321 67.3068 107.213 67.1466C107.763 66.9503 108.106 65.841 108.293 65.0654C108.454 64.3447 108.454 63.5971 108.293 62.8763C107.91 61.1093 107.458 59.3521 106.957 57.6243C106.678 56.811 106.329 56.0228 105.917 55.2683C105.671 54.7578 105.593 53.9921 104.935 53.9921C104.277 53.9921 104.532 54.9738 104.336 55.4058C104.139 55.8377 104.12 56.3874 103.57 56.3285C103.02 56.2696 102.941 55.7493 102.843 55.18C102.745 54.6106 102.617 53.9431 101.94 53.9136C101.596 53.9136 101.38 54.4732 101.233 54.8953C101.14 55.2905 100.927 55.6472 100.622 55.9162C100.318 56.1852 99.938 56.3532 99.5343 56.3972C98.1879 56.5467 96.8337 56.6156 95.4791 56.6034C95.2925 57.8796 97.0599 59.3325 98.6211 59.3423L96.4708 60.5595C95.288 61.3547 94.0474 62.0603 92.7592 62.6702C91.1729 63.3572 89.4908 63.7975 87.7712 63.9758C85.5522 64.0936 83.3036 63.6126 81.0649 63.5831C78.1737 63.4567 75.2773 63.5223 72.3948 63.7794C69.3804 64.1328 66.4347 64.9673 63.3811 65.6054C63.3811 66.9895 64.6281 67.5687 65.9045 68.1184C66.232 68.2477 66.5188 68.4626 66.7347 68.7406C66.9506 69.0187 67.0878 69.3497 67.1319 69.6989C67.5606 71.9597 68.2017 74.175 69.0466 76.3154C70.4899 79.5451 69.9204 82.8436 70.0285 86.1322C70.0285 86.2991 70.0285 86.623 69.9695 86.9274L69.3706 86.5445C66.8864 85.1407 64.0684 84.375 62.1242 82.1171C63.5185 82.1171 66.3365 80.5955 65.7474 79.1721C63.9996 78.9463 62.2715 78.6715 60.5238 78.5046C59.6695 78.4162 58.9724 78.3671 58.6778 77.3167C58.4912 76.6492 58.3636 75.5007 57.5584 75.4614C56.9202 75.4614 56.9497 76.6885 56.6944 77.3266C56.4391 77.9647 56.1642 78.7009 55.3688 78.4457C55.0252 78.3377 55.3197 75.7657 54.3378 75.697C53.3559 75.6283 51.9126 79.2016 51.4413 80.8115C50.7147 83.2461 50.263 85.7199 49.772 88.2722C49.5602 89.0566 49.5602 89.8832 49.772 90.6675C50.0745 91.4291 50.6337 92.0611 51.3529 92.4542C51.7488 92.6254 52.1913 92.6565 52.6073 92.5423C53.0233 92.428 53.3878 92.1753 53.6407 91.8259C54.324 91.0768 55.0993 90.4172 55.9481 89.8626C57.3326 88.9496 58.4323 89.2539 59.2473 90.6675C60.0623 92.0811 60.7987 93.2592 61.4664 94.5942C63.0571 97.545 64.4798 100.583 65.7278 103.694C66.9436 107.291 67.5251 111.071 67.4461 114.866V119.49C62.7035 121.149 57.9217 123.112 52.7177 122.876C52.8056 124.08 53.3141 125.215 54.1541 126.081C54.9942 126.948 56.1123 127.492 57.313 127.618C58.452 127.736 58.7465 128.344 58.7269 129.296C58.7269 129.679 58.5502 130.062 58.5502 130.435C58.4345 131.379 58.4577 132.335 58.6189 133.272C59.3062 135.56 60.2979 137.758 60.946 140.056C61.6306 142.263 62.1008 144.531 62.3501 146.829C62.6643 150.756 62.6643 154.683 62.7625 158.609C62.7625 159.267 62.9097 159.591 63.656 159.591C64.4022 159.591 65.4234 159.787 66.3169 159.807C68.3887 159.856 69.4 158.825 69.0269 156.774C68.5997 154.177 68.5336 151.534 68.8305 148.92C69.0171 146.888 70.6961 144.856 72.4439 144.885C73.7193 144.946 74.9908 145.071 76.2536 145.258C78.3942 145.514 80.5249 145.867 82.6752 146.054C85.6946 146.231 88.7192 145.804 91.5711 144.797C92.0266 144.603 92.5199 144.515 93.0143 144.538C93.5087 144.562 93.9915 144.697 94.4265 144.933C94.8616 145.168 95.2379 145.499 95.5272 145.901C95.8166 146.302 96.0116 146.764 96.0977 147.251C96.2057 147.772 95.862 148.361 95.862 148.91C95.862 152.091 95.862 155.262 95.862 158.433C95.862 159.139 96.1173 159.62 96.9519 159.63C97.5214 159.63 98.1007 159.836 98.6702 159.836C101.891 159.836 102.598 159.071 102.598 155.841C102.598 152.091 102.077 148.321 103.079 144.62C103.629 142.539 103.815 140.272 104.787 138.416C107.468 133.282 110.188 128.187 112.515 122.866C112.784 122.439 113.136 122.071 113.552 121.785C113.967 121.498 114.436 121.298 114.93 121.198C115.912 120.982 116.452 122.052 116.806 122.935C116.936 123.298 117.029 123.673 117.081 124.054C117.326 125.586 117.542 127.117 117.768 128.639C117.935 129.768 118.259 131.996 118.75 132.016C119.241 132.035 119.251 131.034 119.418 130.455C120.144 128.236 119.418 125.272 123.345 125.134C125.014 125.115 125.24 122.052 124.946 120.383ZM103.03 58.7238C103.437 58.7074 103.842 58.7917 104.208 58.9692C104.433 59.149 104.586 59.4031 104.64 59.6859C104.733 59.9327 104.733 60.2047 104.64 60.4516C104.296 61.0406 103.324 61.0995 102.922 61.0995C101.871 61.0995 100.811 60.7166 100.811 59.9705C100.811 59.2245 101.91 58.7238 103.03 58.7238ZM58.4323 84.2474C58.2744 84.4017 58.084 84.5188 57.8751 84.5901C57.6662 84.6614 57.4439 84.6852 57.2246 84.6597H56.7435C55.4965 84.6597 54.6717 84.5419 54.4753 84.1198C54.3947 83.9542 54.3579 83.7708 54.3682 83.5869C54.3785 83.4031 54.4356 83.2249 54.5342 83.0694C54.6959 82.8482 54.9093 82.6699 55.1558 82.5501C55.4022 82.4303 55.6743 82.3727 55.9481 82.3822H56.0758C56.0758 82.3822 58.3636 82.5687 58.5403 83.2559C58.6034 83.4193 58.6265 83.5955 58.6077 83.7696C58.589 83.9438 58.5288 84.111 58.4323 84.2572V84.2474ZM90.3045 87.1924C90.3045 88.1741 90.0492 88.4097 89.028 88.3999C86.6028 88.3999 77.6479 88.3999 75.8903 88.2232C75.1048 88.1544 74.339 87.9777 73.6222 87.8599C73.7204 86.0144 73.7891 84.483 73.8677 82.9516C73.8638 82.2576 73.9197 81.5646 74.0346 80.8802C74.3881 79.4372 75.1637 79.0445 76.7151 79.1328C80.4169 79.339 84.1088 79.4961 87.8105 79.6139C89.7743 79.6826 90.2554 80.0949 90.2849 82.0877C90.334 83.8056 90.275 85.5137 90.334 87.212L90.3045 87.1924ZM93.0833 118.39C93.0833 118.989 93.0833 119.421 92.1014 119.372C90.4816 119.346 88.8619 119.418 87.2508 119.588C87.2508 119.588 79.8179 119.774 76.0965 119.725C75.1146 119.725 74.2113 119.411 73.2589 119.313C72.6403 119.244 72.5225 118.959 72.5323 118.39C72.5323 116.427 72.601 114.463 72.4734 112.5C72.4638 111.081 72.9267 109.7 73.7891 108.573C73.9953 108.249 74.771 108.171 75.2816 108.19C77.2453 108.282 79.2386 108.423 81.2613 108.613C84.3047 108.907 87.3761 108.681 90.3438 107.945C90.6074 107.908 90.876 107.926 91.132 108C91.388 108.073 91.6257 108.199 91.8295 108.371C92.0333 108.542 92.1987 108.755 92.3149 108.994C92.4311 109.234 92.4955 109.495 92.5039 109.761C92.7494 111.361 92.9163 112.981 93.0243 114.601C93.152 115.838 93.1029 117.114 93.0833 118.39ZM117.827 115.151C117.611 115.165 117.395 115.165 117.179 115.151C116.865 115.151 114.233 115.151 113.84 114.022C113.741 113.636 113.796 113.228 113.994 112.883C114.192 112.538 114.518 112.284 114.901 112.176C115.079 112.091 115.273 112.048 115.47 112.048H115.706C115.856 112.058 116.007 112.058 116.158 112.048C117.238 112.117 119.231 112.245 119.231 113.619C119.192 114.856 119.035 114.925 117.827 115.151Z" fill="#BAB2D9"/>
<path d="M147.814 133.704C147.638 133.692 147.464 133.663 147.293 133.616C146.254 133.355 145.202 133.149 144.142 132.997C143.395 132.88 142.639 132.752 141.844 132.585L140.135 132.241C139.027 132.056 137.928 131.81 136.846 131.505C136.434 131.378 136.444 130.887 136.581 130.18V130.062C136.699 129.404 136.895 128.973 137.465 129.012H137.671L138.977 129.316C141.019 129.797 143.13 130.298 145.173 130.877C145.438 130.955 145.711 131.004 145.988 131.024C146.842 131.083 147.951 130.759 148.069 128.874C148.148 127.941 148.329 127.019 148.609 126.126C148.737 125.89 149.277 125.802 149.591 125.812C149.905 125.821 150.269 126.126 150.259 126.273C150.173 128.247 149.967 130.214 149.64 132.163C149.623 132.385 149.562 132.601 149.46 132.798C149.359 132.996 149.219 133.172 149.049 133.315C148.879 133.459 148.683 133.567 148.471 133.634C148.259 133.7 148.035 133.724 147.814 133.704Z" fill="#BAB2D9"/>
<path d="M36.654 173.187C36.2044 173.1 35.7663 172.961 35.3481 172.775C33.7476 172.039 32.7755 169.604 33.237 167.444C33.4727 166.305 33.9438 165.228 34.6202 164.281C35.2965 163.334 36.1631 162.539 37.1646 161.947C37.793 161.545 38.4018 161.113 39.0203 160.681C39.6389 160.249 39.8942 160.052 40.3164 159.768C40.9743 159.326 41.2983 159.139 41.5536 159.188C41.8089 159.238 42.0347 159.552 42.4471 160.17C42.5453 160.327 42.6337 160.484 42.7221 160.641L42.8497 160.848L40.8172 162.595L36.7424 166.119C35.3186 167.356 35.5739 168.838 36.0649 170.262C36.1929 170.441 36.3568 170.592 36.546 170.705C36.7352 170.819 36.9458 170.892 37.1646 170.92C37.2883 170.938 37.414 170.938 37.5377 170.92C39.8381 170.763 41.9835 169.704 43.5076 167.974C44.0133 167.406 44.5686 166.884 45.167 166.414C45.7561 165.933 46.0409 165.746 46.3256 165.795C46.6104 165.844 46.8853 166.188 47.3075 166.777C45.5106 168.986 43.537 171.253 40.7092 172.608C39.4585 173.243 38.0326 173.447 36.654 173.187Z" fill="#BAB2D9"/>
<path d="M53.297 186.999C52.938 186.955 52.5982 186.812 52.3151 186.587L51.0191 185.605L47.7494 183.22C47.1602 182.768 47.1013 182.327 47.5628 181.659C48.7214 180.01 49.8506 178.312 50.9405 176.672L52.4232 174.454C52.7766 173.933 53.2283 173.403 53.8862 173.472C54.488 173.596 55.0406 173.893 55.4768 174.326L52.0599 179.872L51.8046 180.314C51.618 180.628 51.4314 180.952 51.2154 181.296C50.5968 182.111 50.911 182.611 51.6573 183.2C52.4035 183.789 53.1596 184.467 53.8665 185.105L54.7502 185.91C54.328 186.675 53.8469 187.039 53.297 186.999Z" fill="#BAB2D9"/>
<path d="M77.6577 199.211L77.2159 199.054C76.1176 198.549 75.1978 197.724 74.5775 196.687C73.9571 195.65 73.6651 194.449 73.74 193.243C73.7891 190.062 74.879 187.922 77.0883 186.695C78.0847 186.196 79.1844 185.937 80.299 185.939C81.2074 185.908 82.1144 186.034 82.9796 186.312C83.2054 186.381 83.4313 186.469 83.6669 186.567C84.5317 186.935 85.3413 187.42 86.0726 188.01C86.1868 188.082 86.285 188.177 86.361 188.288C86.437 188.4 86.4892 188.526 86.5144 188.658C86.5144 188.776 86.4889 188.892 86.4397 188.999C86.3906 189.106 86.3189 189.2 86.2297 189.277C86.0171 189.499 85.8233 189.739 85.6503 189.993C85.5718 190.092 85.395 190.317 85.2674 190.494C84.6473 189.921 83.9418 189.447 83.176 189.09L82.8421 188.963C82.2888 188.778 81.6983 188.734 81.1238 188.835C80.3296 188.876 79.5573 189.109 78.8731 189.514C78.1889 189.919 77.6135 190.485 77.1963 191.162C76.7669 192.03 76.6526 193.021 76.8729 193.965C77.0932 194.908 77.6344 195.746 78.404 196.335C78.8354 196.722 79.326 197.036 79.8572 197.268L80.2008 197.395C80.7742 197.58 81.3852 197.616 81.9762 197.499C82.5672 197.382 83.1187 197.117 83.5786 196.728C83.756 196.554 83.9725 196.425 84.2098 196.351C84.4472 196.278 84.6987 196.262 84.9434 196.306C85.3405 196.48 85.6807 196.762 85.9253 197.12C85.8301 197.243 85.7416 197.371 85.6602 197.503C85.4736 197.852 85.2037 198.148 84.8746 198.367C82.7118 199.56 80.1714 199.869 77.7854 199.231L77.6577 199.211Z" fill="#BAB2D9"/>
<path d="M132.359 169.584C132.156 169.558 131.962 169.488 131.789 169.378C131.161 168.936 130.552 168.475 129.934 168.024L129.835 167.945C129.246 167.503 128.657 167.061 128.058 166.639C127.459 166.217 126.703 165.746 125.937 165.255C124.926 164.715 123.984 164.056 123.129 163.292C122.952 162.86 124.435 160.278 125.545 158.698C126.174 157.989 127.039 157.532 127.98 157.412C128.41 157.353 128.846 157.353 129.276 157.412C130.204 157.58 131.055 158.036 131.71 158.714C132.366 159.392 132.792 160.258 132.928 161.191C133.036 161.643 133.91 162.104 134.47 162.173H134.696C135.108 162.232 135.678 162.261 136.306 162.281C136.934 162.3 137.553 162.34 137.995 162.399C138.142 162.399 138.604 162.487 138.633 162.654C138.663 162.821 138.447 163.243 138.191 163.508C137.963 163.782 137.674 163.999 137.346 164.141C137.019 164.282 136.662 164.345 136.306 164.323C134.898 164.156 133.482 164.068 132.064 164.058C131.844 164.079 131.631 164.15 131.441 164.263C131.251 164.377 131.088 164.531 130.965 164.715C130.886 164.911 130.858 165.122 130.882 165.332C130.906 165.541 130.981 165.74 131.102 165.913C131.503 166.32 131.943 166.685 132.418 167.003L132.987 167.425C133.083 167.493 133.189 167.546 133.301 167.582C133.527 167.67 133.665 167.739 133.704 167.837C133.716 167.86 133.722 167.885 133.722 167.911C133.722 167.936 133.716 167.962 133.704 167.984C133.441 168.521 133.111 169.022 132.722 169.476C132.614 169.614 132.447 169.594 132.359 169.584ZM129.61 159.483C128.755 159.422 127.906 159.659 127.206 160.153C126.507 160.647 125.999 161.367 125.77 162.192V162.261V162.34C125.813 162.473 125.887 162.594 125.986 162.693C126.591 163.412 127.399 163.933 128.304 164.185C129.462 164.352 130.267 163.096 130.807 161.859L130.876 161.711C130.972 161.585 131.033 161.436 131.053 161.279L130.965 160.926C130.915 160.497 130.725 160.097 130.425 159.787C130.178 159.628 129.9 159.524 129.61 159.483Z" fill="#BAB2D9"/>
<path d="M142.168 96.6165C141.186 96.6165 140.302 96.6165 139.487 96.5478C139.334 96.5418 139.183 96.5027 139.046 96.4333C138.909 96.3638 138.788 96.2656 138.692 96.1453C137.808 95.0949 138.123 92.1597 138.289 90.5792C138.456 88.9987 139.527 88.0268 141.638 87.6931C141.83 87.6748 142.024 87.6748 142.217 87.6931C143.199 87.6931 143.916 88.1839 144.711 89.4601C144.941 89.7318 145.269 89.9012 145.624 89.9313C146.44 89.6504 147.229 89.2955 147.981 88.8711L148.354 88.6747C148.727 88.4784 149.179 88.1741 149.621 87.8796L150.219 87.4869C150.27 87.4487 150.332 87.428 150.396 87.428C150.487 87.428 150.575 87.4642 150.639 87.5286C150.704 87.5931 150.74 87.6805 150.74 87.7716C150.799 89.5092 150.809 89.8331 149.326 90.7166L148.599 91.1191C147.964 91.4573 147.347 91.8309 146.753 92.2382C146.274 92.7097 145.903 93.2789 145.663 93.9071L145.526 94.2605H145.909H146.636H147.176C147.469 94.2379 147.761 94.1953 148.049 94.1329C148.373 94.0628 148.701 94.0168 149.031 93.9954C149.67 93.9954 150.102 94.1427 150.141 94.2801C150.293 94.9228 150.343 95.5853 150.288 96.2435C150.051 96.4126 149.764 96.4957 149.473 96.4791C148.403 96.4791 147.293 96.4791 146.174 96.5478C144.809 96.5772 143.484 96.6165 142.168 96.6165ZM141.932 89.892C140.833 89.892 140.361 90.4712 140.234 91.9535C140.182 92.6953 140.265 93.4404 140.479 94.1525C140.754 94.6041 141.589 94.7709 142.286 94.7709C142.744 94.7747 143.199 94.6983 143.631 94.5452C144.77 94.074 144.171 91.6001 143.876 90.805C143.763 90.5911 143.602 90.4057 143.407 90.2629C143.211 90.12 142.986 90.0234 142.747 89.9804C142.479 89.9249 142.206 89.8953 141.932 89.892Z" fill="#BAB2D9"/>
<path d="M144.171 118.891C142.493 118.844 140.895 118.161 139.702 116.98C138.509 115.798 137.811 114.207 137.749 112.529C137.926 108.603 140.135 105.314 142.659 105.295H142.806C148.462 105.295 151.378 107.886 151.702 113.226C151.715 113.808 151.606 114.386 151.383 114.924C151.16 115.461 150.827 115.946 150.406 116.348C149.596 117.156 148.634 117.797 147.576 118.233C146.518 118.669 145.384 118.893 144.24 118.891H144.171ZM144.053 107.729H143.768C141.058 107.935 139.703 109.349 139.841 111.813C139.947 112.893 140.436 113.899 141.219 114.649C142.003 115.4 143.029 115.846 144.112 115.906C144.233 115.916 144.355 115.916 144.475 115.906C145.955 115.829 147.347 115.177 148.354 114.09C148.593 113.809 148.773 113.482 148.883 113.13C148.992 112.777 149.03 112.406 148.992 112.039C148.768 110.872 148.16 109.814 147.265 109.033C146.37 108.252 145.239 107.793 144.053 107.729Z" fill="#BAB2D9"/>
<path d="M118.288 183.779C117.93 183.678 117.62 183.451 117.415 183.141C115.343 180.579 113.133 177.84 111.032 175.151C110.855 174.925 110.797 174.238 111.032 174.071L111.484 173.668C112.626 172.6 113.843 171.616 115.127 170.723C115.472 170.488 115.862 170.325 116.272 170.246C116.682 170.166 117.105 170.172 117.513 170.262C118.261 170.433 118.962 170.769 119.565 171.243C120.096 171.59 120.52 172.078 120.788 172.652C121.057 173.226 121.161 173.863 121.087 174.493C120.902 175.32 120.551 176.101 120.057 176.789C119.563 177.477 118.934 178.058 118.21 178.498C117.856 178.685 117.523 178.901 117.483 179.185C117.444 179.47 117.601 179.656 117.925 179.951C118.358 180.383 118.743 180.86 119.074 181.374L119.29 181.679C119.663 182.209 119.997 182.896 119.29 183.524C119.159 183.649 118.998 183.737 118.822 183.782C118.647 183.827 118.463 183.826 118.288 183.779ZM116.845 172.304C115.696 172.363 113.477 173.747 113.261 174.463C113.207 174.623 113.207 174.795 113.261 174.954L113.919 175.681C114.463 176.366 115.129 176.945 115.883 177.389C116.344 177.487 116.943 177.143 117.847 176.525L118.063 176.387C118.422 176.188 118.705 175.877 118.87 175.501C119.035 175.125 119.072 174.705 118.976 174.306C118.891 173.879 118.7 173.479 118.42 173.145C118.14 172.81 117.781 172.551 117.375 172.392L117.12 172.343L116.845 172.294V172.304Z" fill="#BAB2D9"/>
<path d="M108.666 189.827C108.675 189.882 108.675 189.938 108.666 189.993C108.667 190.067 108.653 190.14 108.625 190.208C108.596 190.275 108.553 190.336 108.499 190.386L108.43 190.465C108.217 190.722 107.961 190.941 107.674 191.113C107.475 191.19 107.258 191.206 107.049 191.159C106.841 191.112 106.652 191.003 106.506 190.848H106.447H106.378C106.232 190.794 106.101 190.706 105.995 190.592C105.57 190.169 105.015 189.9 104.419 189.827C103.824 189.754 103.221 189.882 102.706 190.19C102.391 190.341 102.086 190.512 101.793 190.7L101.704 190.749C100.722 191.338 99.8583 191.898 100.29 193.361C100.389 193.675 100.408 194.44 99.8681 194.686C99.753 194.736 99.6301 194.766 99.5048 194.774C98.7684 194.774 98.6211 194.48 98.5229 194.372C98.4578 194.199 98.4213 194.016 98.4149 193.832V193.685C98.0124 190.563 97.6589 187.402 97.325 184.339L97.2465 183.671C97.1579 183.208 97.1579 182.731 97.2465 182.268C97.2839 182.032 97.374 181.809 97.51 181.613C97.646 181.418 97.8244 181.256 98.032 181.139H98.1498C98.4427 181.065 98.75 181.071 99.0399 181.155C99.3299 181.24 99.592 181.4 99.7994 181.62C102.185 183.799 104.709 186.185 107.743 189.12C107.827 189.196 107.916 189.269 108.008 189.336C108.238 189.488 108.433 189.689 108.577 189.925L108.666 189.827ZM99.9958 189.444L102.941 187.706L102.765 187.461C101.831 186.228 100.811 185.063 99.711 183.976L99.3281 183.642L99.2495 184.143C99.0684 185.829 99.2871 187.534 99.8878 189.12L99.9958 189.444Z" fill="#BAB2D9"/>
<path d="M28.8676 156.332C29.4863 155.996 30.0033 155.499 30.3643 154.895C30.7253 154.29 30.9172 153.6 30.9197 152.896C30.9824 151.332 31.1497 149.774 31.4205 148.233C31.5383 147.408 32.1962 147.556 32.697 147.752C33.6789 148.164 34.4545 150.334 33.836 151.247C33.7026 151.404 33.6135 151.594 33.5779 151.797C33.5424 152 33.5616 152.208 33.6336 152.401C33.7057 152.594 33.8279 152.765 33.9877 152.895C34.1476 153.025 34.3392 153.11 34.5429 153.141C34.7852 153.122 35.0178 153.038 35.2164 152.898C35.4151 152.759 35.5725 152.568 35.6721 152.346C36.0173 151.744 36.2283 151.074 36.2907 150.383C36.4281 147.889 34.916 146.456 32.5791 145.474C32.0191 145.201 31.3798 145.137 30.7765 145.293C30.1733 145.45 29.646 145.817 29.2898 146.329C28.7389 146.9 28.3398 147.599 28.1288 148.364C27.9178 149.129 27.9018 149.934 28.0821 150.707C28.319 151.583 28.3757 152.498 28.249 153.397C28.186 153.667 28.0571 153.918 27.8738 154.127C27.6906 154.336 27.4585 154.496 27.1984 154.594C26.7762 154.653 26.2165 154.123 25.8139 153.74C25.584 153.466 25.4649 153.116 25.4801 152.759C25.539 151.777 25.7648 150.795 25.7844 149.755C25.7844 149.293 25.5488 148.508 25.264 148.429C24.6819 148.325 24.0815 148.425 23.5654 148.714C23.3917 148.842 23.2487 149.007 23.1468 149.197C23.0449 149.388 22.9866 149.598 22.9762 149.813C22.8713 150.866 22.9477 151.928 23.2021 152.955C23.6397 154.087 24.2784 155.132 25.0873 156.037C25.6093 156.472 26.2534 156.733 26.9306 156.786C27.6077 156.839 28.2845 156.68 28.8676 156.332Z" fill="#BAB2D9"/>
<path d="M17.949 155.841L17.6348 155.645C17.5717 155.608 17.5194 155.554 17.4831 155.491C17.4468 155.427 17.4277 155.355 17.4277 155.282C17.4277 155.208 17.4468 155.136 17.4831 155.073C17.5194 155.009 17.5717 154.956 17.6348 154.918C18.1159 154.624 18.6166 154.32 19.088 154.054C19.5448 153.818 20.0134 153.605 20.4921 153.416C20.5523 153.381 20.6215 153.365 20.691 153.369C20.7605 153.373 20.8273 153.398 20.8829 153.44C20.9385 153.482 20.9804 153.539 21.0035 153.605C21.0265 153.67 21.0297 153.741 21.0125 153.809C20.9644 154.175 21.0118 154.547 21.1499 154.889C21.2874 155.242 21.199 155.488 20.8652 155.606C20.1342 155.898 19.4254 156.242 18.7443 156.637C18.2239 156.892 18.0275 156.784 17.9588 156.214C17.9588 156.087 17.9588 155.979 17.949 155.841Z" fill="#BAB2D9"/>
<path d="M22.8388 100.524C21.2579 100.524 19.6869 99.6008 18.165 98.4915C18.165 98.4915 18.1159 98.4915 18.0962 98.4326C16.8499 97.5779 15.9922 96.2652 15.7103 94.7808C15.5753 94.3359 15.5221 93.8703 15.5531 93.4064C15.6381 91.3195 16.4469 89.3272 17.841 87.7716C18.1942 87.4273 18.5982 87.1393 19.0389 86.9175C19.7842 86.5397 20.5932 86.3033 21.4249 86.2206C21.7305 86.201 22.0374 86.2208 22.338 86.2795C22.5246 86.2795 22.7013 86.3874 22.8781 86.3973C24.2284 86.5587 25.4966 87.131 26.5111 88.0367C27.6062 88.8946 28.5066 89.9754 29.1523 91.2075C29.6808 92.0599 29.8535 93.0857 29.6335 94.0641C29.5353 94.447 29.496 94.8495 29.4076 95.2421C29.1407 96.3447 28.5927 97.3593 27.817 98.1872C27.4508 98.6058 27.0536 98.9963 26.6289 99.3554C25.559 100.21 24.2045 100.628 22.8388 100.524ZM22.2496 98.0497C22.9173 97.9418 23.6047 97.8829 24.2134 97.716C24.6855 97.6146 25.1231 97.392 25.4829 97.0701C25.8428 96.7482 26.1125 96.3381 26.2656 95.8802C26.3916 95.5333 26.4837 95.1749 26.5405 94.8102C26.6583 94.0151 26.7762 93.2199 26.8253 92.4247C26.8529 91.8674 26.7451 91.3116 26.5111 90.805C26.4369 90.6716 26.3327 90.5573 26.2067 90.4712C25.2942 89.7845 24.2761 89.2507 23.1923 88.8907C22.6122 88.6691 21.978 88.6314 21.3758 88.7827C21.0223 88.8809 20.6688 89.0085 20.3153 89.1067C19.9213 89.1966 19.553 89.375 19.2382 89.6284C18.9235 89.8819 18.6706 90.2037 18.4988 90.5694C18.2435 91.0897 18.0766 91.659 17.8115 92.1793C17.6211 92.5683 17.5141 92.9928 17.4972 93.4255C17.4802 93.8583 17.5539 94.2898 17.7133 94.6924C17.7935 94.9883 17.9194 95.2698 18.0864 95.5268C18.691 96.3943 19.5005 97.0991 20.443 97.5785C21.0053 97.8611 21.6209 98.0216 22.2496 98.0497Z" fill="#BAB2D9"/>
<path d="M20.8063 116.132C20.1779 116.584 19.628 116.986 19.0585 117.369C18.8327 117.526 18.5774 117.634 18.3417 117.781C17.9998 117.982 17.6718 118.205 17.3598 118.449C16.81 118.93 16.8198 118.95 16.0441 118.547L15.779 116.751C16.1251 116.338 16.5813 116.031 17.0947 115.867C17.5805 115.655 18.0388 115.385 18.4595 115.062L20.4233 113.658C20.4233 113.128 20.3644 112.51 20.3153 111.891C20.3109 111.782 20.2666 111.677 20.1907 111.598C20.1148 111.518 20.0125 111.469 19.9029 111.459C19.5887 111.41 19.2843 111.381 18.9701 111.361C17.9882 111.283 17.0554 111.214 16.103 111.126C15.7692 111.126 15.6808 110.988 15.6121 110.664C15.5433 110.34 15.4255 109.879 15.3371 109.486C15.3031 109.383 15.3083 109.271 15.3518 109.171C15.3953 109.072 15.474 108.992 15.5728 108.946C15.8011 108.851 16.0429 108.791 16.2896 108.77C18.7512 108.678 21.2163 108.773 23.6636 109.054C24.5316 109.138 25.4033 109.177 26.2754 109.172L28.5043 109.28C28.614 109.28 28.7212 109.313 28.8122 109.374C28.9032 109.435 28.9737 109.522 29.0149 109.624C29.1066 109.822 29.1663 110.035 29.1916 110.252C29.2898 111.587 29.3684 112.922 29.4371 114.257C29.4645 114.94 29.3086 115.618 28.9854 116.221C28.6583 116.75 28.2801 117.247 27.8562 117.703C27.6871 117.885 27.5032 118.052 27.3064 118.204C27.0366 118.449 26.6889 118.591 26.3245 118.606C25.4568 118.7 24.5793 118.64 23.7323 118.429C22.9085 118.136 22.1722 117.64 21.5918 116.986C21.2776 116.731 21.0616 116.437 20.8063 116.132ZM27.1395 111.43C25.6695 111.163 24.1732 111.071 22.6817 111.155C22.4727 111.188 22.2661 111.233 22.0631 111.293C22.1764 112.506 22.4437 113.7 22.8584 114.846C22.8805 114.904 22.9068 114.959 22.937 115.013C23.1347 115.364 23.419 115.658 23.7628 115.868C24.1066 116.077 24.4983 116.195 24.9008 116.211C25.1498 116.242 25.4025 116.202 25.63 116.096C25.8575 115.99 26.0506 115.822 26.187 115.612C26.3834 115.327 26.5601 115.033 26.7565 114.758C27.0619 114.266 27.2545 113.712 27.3207 113.137C27.387 112.561 27.325 111.979 27.1395 111.43Z" fill="#BAB2D9"/>
<path d="M19.952 136.679C20.1772 135.647 20.0671 134.571 19.6378 133.606C19.4513 133.194 19.3334 132.752 19.1861 132.33C19.1861 132.271 19.1861 132.212 19.1861 132.153C18.8719 131.24 18.6166 131.064 17.6544 131.113H17.2911C17.1842 131.112 17.08 131.078 16.9924 131.017C16.9048 130.955 16.8378 130.869 16.8002 130.769C16.6136 130.259 16.427 129.787 16.2797 129.218C16.2443 129.125 16.2356 129.025 16.2545 128.928C16.2734 128.83 16.3192 128.74 16.3866 128.668C16.4541 128.595 16.5406 128.543 16.6362 128.517C16.7319 128.491 16.8329 128.492 16.9278 128.521C18.6657 128.786 20.3939 129.071 22.122 129.346C23.6145 129.581 25.1168 129.778 26.6092 130.043C27.4929 130.19 28.3766 130.425 29.2603 130.612C29.3959 130.637 29.5198 130.704 29.6136 130.805C29.7074 130.906 29.766 131.035 29.7807 131.171C29.8789 131.8 29.9477 132.428 30.036 133.027C29.6326 133.608 29.0796 134.069 28.4356 134.362C26.9627 135.137 25.4899 135.903 24.0858 136.787C22.539 137.746 20.9392 138.618 19.2942 139.398C19.1562 139.482 18.9996 139.531 18.8382 139.541C18.6768 139.55 18.5155 139.519 18.3689 139.451C18.2222 139.383 18.0945 139.28 17.9973 139.151C17.9001 139.022 17.8362 138.871 17.8115 138.711C17.7823 138.575 17.7659 138.437 17.7624 138.298C17.8794 138.013 18.0594 137.758 18.2889 137.553C18.5185 137.347 18.7917 137.196 19.088 137.111C19.3923 136.973 19.6378 136.806 19.952 136.679ZM22.2104 135.383C23.7866 134.665 25.2384 133.701 26.5111 132.526C26.0987 132.428 25.7255 132.32 25.3524 132.261L21.9551 131.78C21.7688 131.766 21.5817 131.766 21.3954 131.78C21.6016 133.007 22.1416 134.107 22.2104 135.383Z" fill="#BAB2D9"/>
<path d="M143.14 153.141C143.022 153.15 142.904 153.15 142.787 153.141L141.913 152.847C141.265 152.621 140.607 152.405 139.949 152.15L137.092 150.991C135.904 150.501 134.549 149.941 133.233 149.431C132.349 149.097 132.104 148.596 132.418 147.762C132.536 147.438 134.853 141.872 135.363 140.841C135.403 140.752 135.466 140.675 135.545 140.618C135.625 140.561 135.718 140.526 135.815 140.517H135.943C136.146 140.523 136.347 140.57 136.532 140.654C136.758 140.744 136.955 140.893 137.101 141.086C137.14 141.136 137.166 141.194 137.176 141.256C137.186 141.317 137.181 141.381 137.16 141.44L136.031 143.943C135.609 144.925 135.049 146.122 134.666 147.192L134.499 147.634L134.941 147.801C135.864 148.154 136.797 148.488 137.73 148.832L138.132 148.989L138.692 147.762C139.163 146.721 139.802 145.298 140.165 144.62C140.236 144.505 140.336 144.41 140.455 144.345C140.573 144.279 140.707 144.246 140.842 144.247C140.993 144.235 141.144 144.26 141.283 144.32C141.422 144.38 141.543 144.473 141.638 144.591C141.73 144.796 141.777 145.019 141.777 145.244C141.777 145.469 141.73 145.691 141.638 145.897C141.363 146.78 140.98 147.791 140.656 148.685L140.332 149.558L141.245 149.892L142.669 150.432L143.052 150.589L143.228 150.265C143.41 150.055 143.556 149.816 143.66 149.558C143.849 149.117 144.01 148.665 144.142 148.204C144.191 148.017 144.24 147.86 144.279 147.703C144.397 147.234 144.552 146.774 144.741 146.329C144.741 146.24 144.829 146.142 144.878 146.054C144.938 145.943 145.025 145.849 145.132 145.782C145.238 145.715 145.361 145.676 145.487 145.671C145.647 145.663 145.808 145.691 145.956 145.754C146.104 145.817 146.235 145.913 146.341 146.034C146.734 146.535 146.469 147.3 146.194 147.909L144.701 151.276C143.935 152.886 143.621 153.141 143.14 153.141Z" fill="#BAB2D9"/>
</g>
<defs>
<clipPath id="clip0_1_627">
<rect width="167" height="270" fill="white"/>
</clipPath>
</defs>
</svg>
